<?xml version="1.0" standalone="no"?>
<!DOCTYPE svg PUBLIC "-//W3C//DTD SVG 20010904//EN"
 "http://www.w3.org/TR/2001/REC-SVG-20010904/DTD/svg10.dtd">
<svg version="1.0" xmlns="http://www.w3.org/2000/svg"
 width="1024.000000pt" height="1024.000000pt" viewBox="0 0 1024.000000 1024.000000"
 preserveAspectRatio="xMidYMid meet">
<metadata>
Created by potrace 1.14, written by Peter Selinger 2001-2017
</metadata>
<g transform="translate(0.000000,1024.000000) scale(0.100000,-0.100000)"
fill="#000000" stroke="none">
<path d="M3182 7618 c-7 -7 -12 -20 -12 -29 0 -10 -4 -20 -9 -23 -9 -6 -56
-101 -50 -101 2 0 -6 -15 -19 -32 -13 -18 -20 -33 -15 -33 4 0 3 -4 -3 -8 -6
-4 -26 -36 -45 -72 -19 -36 -36 -67 -39 -70 -15 -15 -69 -128 -63 -133 3 -4 2
-7 -3 -7 -6 0 -25 -30 -44 -67 -19 -38 -40 -74 -47 -81 -7 -7 -13 -19 -13 -26
0 -8 -7 -19 -15 -26 -8 -7 -13 -16 -10 -20 2 -4 -3 -16 -13 -26 -9 -11 -18
-25 -20 -32 -1 -7 -13 -31 -27 -52 -14 -22 -25 -47 -25 -55 0 -9 -4 -13 -10
-10 -5 3 -12 -6 -16 -20 -3 -14 -9 -25 -13 -25 -4 0 -8 -6 -9 -12 -1 -7 -5
-32 -10 -56 -8 -38 -6 -50 15 -90 14 -26 35 -60 47 -77 12 -16 27 -42 34 -57
6 -16 16 -28 21 -28 5 0 12 -11 15 -25 4 -14 11 -25 16 -25 6 0 10 -6 10 -14
0 -7 7 -19 15 -26 8 -7 12 -16 9 -21 -3 -5 0 -9 5 -9 6 0 11 -7 11 -15 0 -8 4
-15 9 -15 5 0 12 -8 15 -17 13 -35 37 -73 47 -73 5 0 9 -6 9 -13 0 -7 9 -23
19 -34 11 -12 18 -23 15 -26 -2 -2 2 -10 11 -17 8 -7 15 -19 15 -27 0 -7 7
-16 15 -19 8 -4 15 -12 15 -20 0 -8 10 -25 21 -38 12 -14 27 -34 33 -45 29
-51 81 -137 88 -146 26 -32 55 -84 50 -89 -3 -3 0 -6 6 -6 7 0 12 -7 12 -15 0
-7 6 -18 13 -22 6 -4 19 -21 28 -38 26 -49 43 -78 56 -92 6 -7 15 -22 18 -33
3 -11 11 -20 16 -20 6 0 7 -5 4 -10 -3 -6 1 -13 9 -16 9 -3 16 -12 16 -20 0
-8 5 -14 12 -14 6 0 9 -3 5 -6 -3 -4 -1 -12 6 -20 30 -33 35 -42 30 -48 -4 -3
-2 -6 3 -6 5 0 18 -17 29 -37 11 -21 24 -43 30 -50 5 -7 15 -18 21 -25 5 -7
11 -17 12 -23 1 -5 9 -18 17 -28 8 -9 15 -20 15 -23 0 -3 16 -30 35 -60 19
-30 35 -59 35 -65 0 -5 7 -12 15 -15 8 -4 15 -12 15 -19 0 -8 6 -20 14 -27 7
-8 17 -24 20 -36 4 -12 11 -22 16 -22 4 0 11 -11 14 -25 4 -14 11 -25 17 -25
6 0 8 -4 5 -8 -3 -5 2 -18 12 -28 22 -25 52 -74 59 -96 3 -10 9 -18 14 -18 5
0 9 -7 9 -15 0 -8 5 -15 10 -15 6 0 10 -5 10 -10 0 -6 18 -37 40 -69 22 -32
40 -64 40 -70 0 -6 5 -11 10 -11 6 0 10 -7 10 -15 0 -8 5 -15 10 -15 6 0 10
-4 10 -9 0 -16 67 -120 74 -114 3 3 6 2 6 -4 0 -6 21 -45 48 -87 26 -43 53
-89 61 -104 8 -15 19 -30 25 -34 6 -5 7 -8 1 -8 -5 0 -2 -5 8 -11 9 -5 17 -17
17 -25 0 -8 9 -24 20 -36 10 -12 17 -25 14 -30 -3 -4 -2 -8 3 -8 4 0 21 -26
38 -58 16 -31 32 -59 35 -62 3 -3 14 -22 25 -44 11 -21 26 -40 33 -43 6 -3 12
-14 12 -24 0 -10 5 -19 10 -19 6 0 10 -7 10 -15 0 -8 5 -15 11 -15 5 0 8 -4 5
-9 -5 -7 4 -21 45 -69 6 -7 9 -16 6 -19 -3 -3 3 -14 14 -26 10 -11 19 -27 19
-34 0 -7 5 -13 10 -13 6 0 10 -7 10 -15 0 -8 5 -15 10 -15 6 0 10 -6 10 -13 0
-7 8 -22 18 -33 9 -11 18 -26 20 -34 2 -8 8 -16 13 -18 5 -2 9 -9 9 -16 0 -7
9 -22 20 -34 12 -12 18 -22 15 -22 -5 0 3 -12 32 -44 7 -8 9 -16 6 -20 -4 -3
0 -6 7 -6 7 0 11 -3 7 -6 -3 -4 -1 -12 6 -20 22 -25 32 -40 35 -54 2 -8 8 -18
13 -21 6 -3 11 -12 13 -20 2 -14 12 -31 73 -126 18 -29 33 -57 33 -63 0 -5 3
-10 8 -10 4 0 18 -25 32 -55 14 -30 28 -55 33 -55 4 0 7 -7 7 -15 0 -8 5 -15
10 -15 6 0 10 -5 10 -11 0 -28 100 -159 121 -159 14 0 66 56 74 79 3 11 11 21
16 21 5 0 9 6 9 13 0 8 9 24 20 37 11 12 17 27 14 31 -3 5 -1 9 3 9 5 0 23 27
41 60 18 33 39 65 45 72 12 13 32 54 36 73 1 6 9 14 17 18 8 4 14 15 14 22 0
8 4 15 10 15 5 0 9 3 8 8 -3 9 72 134 86 144 7 5 7 8 1 8 -5 0 -3 6 5 13 8 7
21 23 28 37 22 43 39 71 51 83 6 6 11 19 11 29 0 10 4 18 9 18 5 0 14 13 21
30 7 16 23 42 36 57 12 15 21 30 18 35 -3 4 0 8 6 8 6 0 8 4 5 10 -3 5 -2 10
4 10 10 0 42 53 40 66 0 4 4 10 9 13 10 7 43 67 41 77 0 4 4 10 9 13 5 3 24
33 42 66 18 33 39 65 47 72 8 6 13 14 12 18 -1 4 13 31 32 62 67 107 119 188
129 201 6 6 8 12 5 12 -3 0 3 10 15 22 11 12 20 27 20 33 0 6 10 22 23 35 12
14 21 26 20 27 -2 2 64 111 84 138 5 6 9 17 11 24 1 7 9 19 16 27 8 7 20 27
28 44 7 16 16 30 20 30 5 0 8 5 8 10 0 11 47 87 67 108 7 7 13 18 13 23 0 6
11 25 25 43 14 18 23 35 20 37 -2 3 7 18 20 33 14 16 25 33 25 38 0 4 20 37
45 72 25 36 45 70 45 75 0 6 4 11 8 11 5 0 21 24 36 53 36 68 67 121 75 127 3
3 17 27 31 54 14 26 31 50 37 53 7 3 11 9 8 13 -3 4 2 13 10 20 8 7 12 16 9
21 -3 5 0 9 6 9 6 0 16 14 21 30 6 17 15 30 21 30 5 0 6 5 3 10 -3 6 -1 10 5
10 6 0 9 4 6 9 -3 5 1 11 9 15 8 3 15 12 15 20 0 8 6 21 14 28 8 8 26 38 40
66 15 29 31 52 36 52 6 0 10 6 10 13 0 8 25 54 56 103 32 49 63 101 71 117 8
15 19 27 24 27 5 0 9 6 9 13 0 7 36 70 80 140 44 70 80 133 80 138 0 6 4 8 9
4 5 -3 13 5 17 17 4 13 9 25 13 28 13 10 121 180 121 190 0 5 4 10 10 10 5 0
12 11 16 25 3 14 10 23 14 20 5 -3 12 5 16 17 3 13 19 39 35 59 16 20 26 39
22 43 -3 3 -1 6 5 6 26 0 -11 110 -53 160 -7 8 -27 42 -45 75 -18 33 -41 75
-51 93 -10 17 -15 32 -11 32 4 0 2 4 -3 8 -6 4 -17 21 -25 37 -8 17 -17 32
-20 35 -9 9 -40 65 -56 103 -10 20 -21 37 -26 37 -4 0 -8 9 -8 20 0 11 -4 20
-9 20 -5 0 -12 11 -15 25 -4 14 -11 25 -16 25 -6 0 -10 9 -10 20 0 11 -4 20
-8 20 -5 0 -16 18 -26 40 -10 22 -22 40 -27 40 -6 0 -8 4 -5 8 3 5 -6 24 -19
44 -13 19 -32 51 -43 70 -11 19 -26 46 -34 59 -7 13 -15 26 -18 29 -3 3 -13
19 -22 35 -24 43 -44 43 -65 1 -9 -20 -20 -36 -25 -36 -4 0 -8 -7 -8 -16 0 -8
-6 -22 -12 -29 -31 -34 -36 -43 -31 -49 4 -3 1 -6 -6 -6 -7 0 -9 -5 -6 -10 3
-6 -1 -13 -9 -16 -9 -3 -14 -10 -11 -14 2 -4 -3 -17 -13 -28 -46 -54 -52 -63
-52 -72 0 -6 -4 -10 -10 -10 -5 0 -10 -5 -10 -10 0 -12 -80 -123 -92 -128 -4
-2 -8 -10 -8 -18 0 -8 -3 -14 -8 -14 -4 0 -16 -17 -27 -37 -11 -21 -28 -44
-38 -51 -9 -7 -15 -18 -12 -23 4 -5 -1 -12 -9 -15 -9 -3 -16 -12 -16 -20 0 -8
-5 -14 -11 -14 -5 0 -7 5 -3 11 11 19 -39 -1 -58 -22 -9 -10 -21 -19 -27 -19
-7 0 -14 -7 -17 -15 -4 -8 -12 -15 -18 -15 -7 0 -23 -11 -36 -25 -13 -14 -25
-23 -28 -21 -2 2 -11 -3 -21 -12 -21 -21 -73 -62 -101 -82 -13 -8 -29 -22 -38
-30 -9 -8 -17 -13 -20 -11 -2 1 -19 -11 -38 -27 -19 -17 -34 -28 -34 -25 0 3
-9 -5 -20 -18 -10 -13 -19 -20 -20 -16 0 4 -11 -2 -24 -15 -13 -13 -47 -41
-76 -63 -29 -22 -61 -48 -72 -57 -10 -10 -20 -18 -22 -18 -5 0 -141 -92 -178
-121 -15 -11 -42 -44 -60 -72 -18 -29 -37 -57 -43 -64 -5 -6 -23 -34 -40 -63
-16 -28 -40 -63 -53 -78 -13 -15 -32 -48 -44 -74 -11 -27 -24 -48 -29 -48 -5
0 -9 -6 -9 -13 0 -8 -9 -22 -20 -32 -11 -10 -17 -22 -14 -26 3 -5 1 -9 -4 -9
-5 0 -21 -25 -37 -56 -16 -31 -33 -61 -39 -67 -6 -7 -24 -37 -40 -67 -16 -30
-37 -64 -46 -75 -10 -11 -32 -48 -49 -82 -17 -34 -36 -65 -43 -69 -12 -8 -71
54 -63 66 5 7 -64 102 -77 108 -5 2 -8 10 -8 19 0 8 -9 27 -19 42 -11 15 -21
34 -23 42 -2 8 -11 21 -20 30 -10 9 -18 21 -18 28 0 6 -4 11 -9 11 -5 0 -11 8
-14 18 -6 16 -29 55 -68 113 -14 20 -104 171 -176 294 -10 17 -21 32 -25 33
-5 2 -8 11 -8 20 0 8 -2 13 -5 10 -3 -3 -24 14 -48 36 -23 23 -74 63 -113 89
-39 26 -80 56 -92 67 -12 11 -24 20 -27 20 -3 0 -19 12 -36 28 -16 15 -43 34
-59 43 -16 9 -27 18 -25 21 3 3 -13 13 -35 23 -22 10 -40 24 -40 32 0 8 -4 12
-9 8 -5 -3 -18 6 -29 20 -11 14 -27 25 -37 25 -9 0 -13 5 -10 10 3 6 1 10 -5
10 -11 0 -126 86 -167 124 -37 35 -53 47 -53 40 0 -4 -8 2 -17 12 -30 34 -87
72 -100 67 -7 -3 -13 0 -13 7 0 6 -4 8 -10 5 -5 -3 -10 -1 -10 4 0 6 -9 22
-21 35 -12 13 -20 27 -20 30 1 4 -9 17 -21 30 -13 13 -30 33 -38 46 -8 13 -25
33 -38 46 -13 13 -20 24 -16 24 4 0 -5 14 -21 30 -16 17 -25 30 -21 30 4 0 -3
11 -16 25 -28 30 -37 41 -68 85 -13 19 -32 44 -42 54 -10 11 -18 26 -18 33 0
7 -4 13 -10 13 -5 0 -10 6 -10 13 0 8 -9 22 -20 32 -11 10 -20 23 -20 29 0 11
-43 66 -52 66 -2 0 -9 -5 -16 -12z"/>
</g>
</svg>
